<?xml version="1.0" encoding="UTF-8" standalone="no"?>
<svg width="16px" height="16px" viewBox="0 0 16 16" version="1.1" xmlns="http://www.w3.org/2000/svg" xmlns:xlink="http://www.w3.org/1999/xlink" xmlns:sketch="http://www.bohemiancoding.com/sketch/ns">
    <!-- Generator: Sketch 3.3.2 (12043) - http://www.bohemiancoding.com/sketch -->
    <title>Comment Mail™</title>
    <desc>Created with Sketch.</desc>
    <defs></defs>
    <g id="Page-1" stroke="none" stroke-width="1" fill="none" fill-rule="evenodd" sketch:type="MSPage">
        <g id="Comment-Mail™" sketch:type="MSArtboardGroup" fill="#4A4A4A">
            <path d="M14.1,5.63571636 C14.9517714,6.33967604 15.450459,7.19287046 15.450459,8.11238878 C15.450459,9.00675525 14.9786798,9.83837654 14.1691007,10.5309611 L15.9373937,14.0087185 L11.9256139,11.7893977 L11.9256139,11.7893977 C10.7290121,12.2282491 9.30434069,12.482874 7.77522952,12.482874 C3.53631731,12.482874 0.100000001,10.5261411 0.100000001,8.11238878 C0.100000001,7.04123575 0.776722924,6.06008476 1.89999998,5.30000019 L1.89999998,7.0658888 C1.89999998,7.30870143 2.09163284,7.50553995 2.34867325,7.50553995 L13.6513267,7.50553995 C13.8991221,7.50553995 14.1,7.31362877 14.1,7.0658888 L14.1,5.63571636 Z" id="Bubbles" sketch:type="MSShapeGroup"></path>
            <path d="M3.03674893,0 C2.79553911,0 2.5999999,0.198275445 2.5999999,0.450938832 L2.5999999,6.42178844 C2.5999999,6.67083508 2.80610042,6.87272727 3.03674893,6.87272727 L12.9632509,6.87272727 C13.2044607,6.87272727 13.3999999,6.67445183 13.3999999,6.42178844 L13.3999999,0.450938832 C13.3999999,0.201892192 13.1938994,0 12.9632509,0 L3.03674893,0 Z M7.99999989,4.5999999 L12.5,0.600000013 L11.5625,0.600000013 L7.99999989,2.78181813 L4.43749976,0.600000013 L3.5,0.599999905 L7.99999989,4.5999999 Z" id="Envelope" sketch:type="MSShapeGroup"></path>
        </g>
    </g>
</svg>